<?xml version="1.0" standalone="no"?>
<!DOCTYPE svg PUBLIC "-//W3C//DTD SVG 20010904//EN"
 "http://www.w3.org/TR/2001/REC-SVG-20010904/DTD/svg10.dtd">
<svg version="1.0" xmlns="http://www.w3.org/2000/svg"
 width="512.000000pt" height="512.000000pt" viewBox="0 0 512.000000 512.000000"
 preserveAspectRatio="xMidYMid meet">

<g transform="translate(0.000000,512.000000) scale(0.100000,-0.100000)"
fill="#000000" stroke="none">
<path d="M1432 4970 c-11 -11 -23 -35 -26 -52 -9 -54 -26 -551 -33 -908 -5
-293 -4 -343 11 -399 38 -147 121 -264 251 -351 83 -56 127 -105 143 -158 43
-144 55 -563 27 -973 -19 -285 -65 -778 -116 -1264 -24 -221 -39 -407 -36
-445 12 -186 144 -299 336 -288 171 10 276 112 288 282 3 47 -9 204 -36 461
-104 991 -135 1419 -128 1790 8 431 28 494 189 599 120 78 208 203 244 346 15
57 16 109 11 415 -6 364 -24 836 -33 893 -9 58 -62 88 -119 66 -44 -17 -45
-32 -45 -624 0 -340 -4 -568 -10 -579 -16 -31 -64 -45 -96 -29 -54 25 -54 18
-54 629 l0 566 -23 21 c-31 29 -77 29 -105 -1 l-22 -23 0 -550 c0 -349 -4
-563 -11 -586 -13 -50 -57 -75 -100 -57 -16 6 -33 17 -37 23 -4 6 -9 271 -12
588 l-5 576 -24 26 c-32 34 -79 35 -109 3 l-22 -23 0 -565 c0 -607 0 -602 -52
-627 -23 -10 -33 -10 -63 2 -19 8 -36 16 -37 18 -1 2 -5 268 -8 591 l-5 589
-24 19 c-30 25 -81 24 -109 -1z"/>
<path d="M3480 4969 c-63 -32 -187 -161 -264 -277 -153 -229 -253 -516 -301
-862 -23 -158 -31 -583 -15 -703 38 -283 140 -453 332 -554 115 -60 112 -50
94 -365 -49 -834 -49 -1389 0 -1746 17 -131 41 -202 85 -255 93 -113 247 -99
313 29 l21 39 3 2279 2 2279 -24 52 c-31 68 -73 98 -145 103 -43 2 -67 -2
-101 -19z"/>
</g>
</svg>
