<?xml version="1.0" encoding="UTF-8"?>
<svg version="1.1" xmlns="http://www.w3.org/2000/svg" width="512" height="512">
<path d="M0 0 C6.41589869 3.81519024 10.50061798 8.85310993 12.48046875 16.08984375 C12.70751953 19.24951172 12.70751953 19.24951172 12.67578125 22.58203125 C12.66611328 24.38027344 12.66611328 24.38027344 12.65625 26.21484375 C12.63111328 28.07109375 12.63111328 28.07109375 12.60546875 29.96484375 C12.59644531 31.22554687 12.58742188 32.48625 12.578125 33.78515625 C12.55462683 36.88691415 12.52177209 39.98828027 12.48046875 43.08984375 C13.10373047 43.13810303 13.72699219 43.1863623 14.36914062 43.23608398 C20.0856015 43.7342729 25.4608905 44.5914613 30.98046875 46.15234375 C31.74238525 46.36640869 32.50430176 46.58047363 33.28930664 46.80102539 C42.05636016 49.38739152 50.27989711 53.08779933 58.48046875 57.08984375 C59.49753906 57.58355469 60.51460938 58.07726563 61.5625 58.5859375 C73.35685059 64.68169996 83.94008209 72.91359399 93.48046875 82.08984375 C93.98433105 82.56260742 94.48819336 83.03537109 95.00732422 83.52246094 C121.85042294 108.76094066 138.02623124 144.34329688 140.48046875 181.08984375 C140.62067536 186.38272441 140.65808915 191.67369816 140.67969894 196.9682312 C140.69165542 199.64563932 140.71115003 202.32289788 140.7328186 205.00024414 C140.79386135 212.6067186 140.84821772 220.21317483 140.88183594 227.81982422 C140.90303245 232.49347416 140.93852644 237.16684432 140.98259354 241.84033203 C140.99655517 243.60055199 141.00542994 245.36082136 141.00864792 247.12109375 C141.03954548 262.40978769 142.54604808 277.35191114 147.10546875 292.02734375 C147.48396973 293.25747192 147.48396973 293.25747192 147.87011719 294.51245117 C155.49531058 318.22444524 169.97547529 341.84558437 189.47265625 357.7109375 C198.2190558 364.85658091 203.47428027 374.27171967 204.76171875 385.5546875 C205.18804091 396.79893438 201.49357872 406.57542278 193.98046875 414.83984375 C193.15546875 415.58234375 192.33046875 416.32484375 191.48046875 417.08984375 C190.73796875 417.77046875 189.99546875 418.45109375 189.23046875 419.15234375 C183.33435634 423.30642294 176.59237137 426.21952238 169.31695557 426.21009827 C168.08444817 426.21216026 168.08444817 426.21216026 166.82704163 426.21426392 C165.93440109 426.21066864 165.04176056 426.20707336 164.12207031 426.20336914 C162.70204964 426.20358818 162.70204964 426.20358818 161.25334167 426.20381165 C158.12590235 426.20311528 154.99852267 426.19533573 151.87109375 426.1875 C149.70204704 426.18563484 147.53299992 426.1842114 145.36395264 426.18321228 C139.65605506 426.17939481 133.94818293 426.16957106 128.24029541 426.1585083 C122.41540878 426.14827765 116.59051803 426.14371111 110.765625 426.13867188 C99.3372284 426.12794813 87.90885069 426.11088092 76.48046875 426.08984375 C76.41630264 427.12412003 76.35213654 428.1583963 76.286026 429.22401428 C76.19868794 430.5921396 76.1112337 431.9602575 76.02368164 433.32836914 C75.98177956 434.00874489 75.93987747 434.68912064 75.89670563 435.39011383 C74.80551791 452.26525019 67.62020211 468.41870581 56.48046875 481.08984375 C55.88878906 481.82332031 55.29710937 482.55679687 54.6875 483.3125 C41.92979158 498.64805465 23.09370487 508.1881471 3.48046875 511.08984375 C-15.5185441 512.28490572 -32.46492268 511.09791593 -49.51953125 502.08984375 C-50.47085938 501.6103125 -51.4221875 501.13078125 -52.40234375 500.63671875 C-72.73125753 489.70262936 -85.35916307 471.43455637 -92.578125 449.9375 C-94.13144662 444.40054016 -94.76057386 438.94631308 -95.08984375 433.21875 C-95.13246338 432.53010864 -95.17508301 431.84146729 -95.21899414 431.13195801 C-95.3225218 429.4514562 -95.42149945 427.77067511 -95.51953125 426.08984375 C-96.71032791 426.0987262 -97.90112457 426.10760864 -99.12800598 426.11676025 C-110.38237675 426.19805402 -121.63668749 426.2579088 -132.8912859 426.29709244 C-138.67659105 426.31791478 -144.46165805 426.34613453 -150.24682617 426.39160156 C-155.83598338 426.43525027 -161.42491234 426.45902107 -167.01422691 426.46935272 C-169.14035316 426.47671001 -171.26646775 426.49107667 -173.39249611 426.51276398 C-188.29518521 426.65865722 -200.6225544 426.35132225 -212.14453125 415.65234375 C-212.92828125 414.80671875 -213.71203125 413.96109375 -214.51953125 413.08984375 C-215.20015625 412.36796875 -215.88078125 411.64609375 -216.58203125 410.90234375 C-222.70999821 402.00690784 -225.00003175 391.18241003 -223.05859375 380.5703125 C-219.92574086 368.86818553 -213.42471541 361.79296141 -204.68994141 353.82275391 C-186.45153682 337.12197427 -173.58601212 315.86814354 -166.26953125 292.27734375 C-166.03516357 291.53242676 -165.8007959 290.78750977 -165.55932617 290.02001953 C-161.47093545 276.05171799 -160.08121352 261.97416841 -160.10884094 247.48787689 C-160.11343909 244.85897426 -160.09899062 242.2307039 -160.08044434 239.60186768 C-160.04416734 234.01453568 -160.03004962 228.42727594 -160.01953125 222.83984375 C-159.95278694 187.48300466 -159.30948219 155.44496286 -143.51953125 123.08984375 C-142.77896484 121.56423828 -142.77896484 121.56423828 -142.0234375 120.0078125 C-134.82232763 106.07478689 -124.7047979 93.98830869 -113.51953125 83.08984375 C-112.99617188 82.52136719 -112.4728125 81.95289062 -111.93359375 81.3671875 C-92.87241751 61.13982116 -63.57409567 47.88089994 -36.51953125 43.08984375 C-34.85330427 43.05156302 -33.18547959 43.04091613 -31.51953125 43.08984375 C-31.54047852 42.31906494 -31.56142578 41.54828613 -31.58300781 40.75415039 C-31.6667861 37.22035057 -31.71838723 33.68676053 -31.76953125 30.15234375 C-31.80304688 28.93998047 -31.8365625 27.72761719 -31.87109375 26.47851562 C-31.95846209 18.41878664 -31.522323 11.30067967 -25.73925781 5.21704102 C-18.49736539 -1.37201187 -9.51678154 -3.43784511 0 0 Z " fill="#DEA805" transform="translate(265.51953125,0.91015625)"/>
<path d="M0 0 C7.82176931 0 11.02212797 1.25316599 16.546875 6.45703125 C21.15263147 11.59109508 22.25946915 16.75573914 22.1953125 23.4921875 C22.18886719 24.69101562 22.18242187 25.88984375 22.17578125 27.125 C22.15902344 28.3625 22.14226562 29.6 22.125 30.875 C22.11597656 32.13570312 22.10695313 33.39640625 22.09765625 34.6953125 C22.07415808 37.7970704 22.04130334 40.89843652 22 44 C22.62326172 44.04825928 23.24652344 44.09651855 23.88867188 44.14624023 C29.60513275 44.64442915 34.98042175 45.50161755 40.5 47.0625 C41.2619165 47.27656494 42.02383301 47.49062988 42.80883789 47.71118164 C51.57589141 50.29754777 59.79942836 53.99795558 68 58 C69.01707031 58.49371094 70.03414063 58.98742188 71.08203125 59.49609375 C82.87638184 65.59185621 93.45961334 73.82375024 103 83 C103.5038623 83.47276367 104.00772461 83.94552734 104.52685547 84.43261719 C131.36995419 109.67109691 147.54576249 145.25345313 150 182 C150.14020661 187.29288066 150.1776204 192.58385441 150.19923019 197.87838745 C150.21118667 200.55579557 150.23068128 203.23305413 150.25234985 205.91040039 C150.3133926 213.51687485 150.36774897 221.12333108 150.40136719 228.72998047 C150.4225637 233.40363041 150.45805769 238.07700057 150.50212479 242.75048828 C150.51608642 244.51070824 150.52496119 246.27097761 150.52817917 248.03125 C150.55907673 263.31994394 152.06557933 278.26206739 156.625 292.9375 C156.87733398 293.75758545 157.12966797 294.5776709 157.38964844 295.42260742 C165.01484183 319.13460149 179.49500654 342.75574062 198.9921875 358.62109375 C207.73858705 365.76673716 212.99381152 375.18187592 214.28125 386.46484375 C214.70757216 397.70909063 211.01310997 407.48557903 203.5 415.75 C202.675 416.4925 201.85 417.235 201 418 C200.2575 418.680625 199.515 419.36125 198.75 420.0625 C192.85388759 424.21657919 186.11190262 427.12967863 178.83648682 427.12025452 C177.60397942 427.12231651 177.60397942 427.12231651 176.34657288 427.12442017 C175.45393234 427.12082489 174.56129181 427.11722961 173.64160156 427.11352539 C172.22158089 427.11374443 172.22158089 427.11374443 170.77287292 427.1139679 C167.6454336 427.11327153 164.51805392 427.10549198 161.390625 427.09765625 C159.22157829 427.09579109 157.05253117 427.09436765 154.88348389 427.09336853 C149.17558631 427.08955106 143.46771418 427.07972731 137.75982666 427.06866455 C131.93494003 427.0584339 126.11004928 427.05386736 120.28515625 427.04882812 C108.85675965 427.03810438 97.42838194 427.02103717 86 427 C85.93583389 428.03427628 85.87166779 429.06855255 85.80555725 430.13417053 C85.71821919 431.50229585 85.63076495 432.87041375 85.54321289 434.23852539 C85.50131081 434.91890114 85.45940872 435.59927689 85.41623688 436.30027008 C84.32504916 453.17540644 77.13973336 469.32886206 66 482 C65.40832031 482.73347656 64.81664062 483.46695312 64.20703125 484.22265625 C51.28783227 499.75233255 32.69304124 508.71782646 13 512 C8.71 512 4.42 512 0 512 C0 343.04 0 174.08 0 0 Z " fill="#FFC106" transform="translate(256,0)"/>
<path d="M0 0 C28.38 0 56.76 0 86 0 C86 28.05 86 56.1 86 85 C71.06633241 85 59.1566706 82.94922068 46 76 C45.04867187 75.52046875 44.09734375 75.0409375 43.1171875 74.546875 C22.78827372 63.61278561 10.16036818 45.34471262 2.94140625 23.84765625 C0.67374027 15.76434929 0.57651628 8.64774427 0 0 Z " fill="#DE8B00" transform="translate(170,427)"/>
<path d="M0 0 C28.38 0 56.76 0 86 0 C84.59676801 21.04847983 80.12304828 38.93542401 66 55 C65.40832031 55.73347656 64.81664062 56.46695313 64.20703125 57.22265625 C51.28783227 72.75233255 32.69304124 81.71782646 13 85 C8.71 85 4.42 85 0 85 C0 56.95 0 28.9 0 0 Z " fill="#FFA000" transform="translate(256,427)"/>
<path d="M0 0 C7.82176931 0 11.02212797 1.25316599 16.546875 6.45703125 C21.15263147 11.59109508 22.25946915 16.75573914 22.1953125 23.4921875 C22.18886719 24.69101562 22.18242187 25.88984375 22.17578125 27.125 C22.15902344 28.3625 22.14226562 29.6 22.125 30.875 C22.11597656 32.13570312 22.10695313 33.39640625 22.09765625 34.6953125 C22.07415894 37.79695681 22.03829009 40.89850303 22 44 C14.74 43.67 7.48 43.34 0 43 C0 28.81 0 14.62 0 0 Z " fill="#FFA000" transform="translate(256,0)"/>
<path d="M0 0 C0 14.19 0 28.38 0 43 C-10.89 43.495 -10.89 43.495 -22 44 C-22.10850778 39.68681587 -22.1875767 35.37639567 -22.25 31.0625 C-22.28351563 29.85013672 -22.31703125 28.63777344 -22.3515625 27.38867188 C-22.43893084 19.32894289 -22.00279175 12.21083592 -16.21972656 6.12719727 C-10.703656 1.10838747 -7.78019661 0 0 0 Z " fill="#DE8B00" transform="translate(256,0)"/>
</svg>
