<?xml version="1.0" standalone="no"?>
<!DOCTYPE svg PUBLIC "-//W3C//DTD SVG 20010904//EN"
 "http://www.w3.org/TR/2001/REC-SVG-20010904/DTD/svg10.dtd">
<svg version="1.0" xmlns="http://www.w3.org/2000/svg"
 width="512.000000pt" height="512.000000pt" viewBox="0 0 512.000000 512.000000"
 preserveAspectRatio="xMidYMid meet">

<g transform="translate(0.000000,512.000000) scale(0.100000,-0.100000)"
fill="#000000" stroke="none">
<path d="M3972 5103 c-98 -48 -108 -192 -18 -256 24 -17 49 -23 119 -27 l87
-5 -678 -678 -678 -678 -429 342 c-237 189 -443 350 -460 360 -16 10 -41 19
-55 20 -80 7 -56 28 -618 -533 -305 -305 -540 -547 -548 -565 -19 -44 -18 -77
6 -123 32 -63 90 -89 167 -75 34 6 94 62 509 477 341 340 476 468 485 462 8
-4 203 -159 433 -342 231 -184 433 -343 450 -353 34 -21 90 -25 133 -8 16 5
355 336 766 747 l737 737 0 -79 c0 -51 6 -90 16 -112 52 -109 210 -110 263 -1
20 41 21 59 21 312 0 253 -1 271 -21 312 -14 30 -33 50 -60 63 -35 19 -59 20
-316 20 -236 0 -283 -3 -311 -17z"/>
<path d="M170 4353 c-19 -10 -45 -33 -57 -52 l-23 -34 0 -2082 0 -2082 23 -34
c12 -19 38 -42 57 -51 33 -17 168 -18 2390 -18 2222 0 2357 1 2390 18 107 53
107 211 0 264 -26 13 -59 18 -127 18 l-93 0 0 1629 0 1630 -24 28 -24 28 -167
3 c-115 2 -177 0 -197 -9 -62 -25 -58 86 -58 -1689 l0 -1620 -150 0 -150 0 0
1015 c0 1104 2 1057 -55 1083 -17 8 -84 12 -189 12 -185 0 -206 -7 -226 -78
-6 -24 -10 -382 -10 -1034 l0 -998 -150 0 -150 0 0 604 0 605 -24 28 -24 28
-167 3 c-115 2 -177 0 -197 -9 -59 -24 -58 -12 -58 -664 l0 -595 -150 0 -150
0 0 1020 c0 1109 2 1062 -55 1088 -17 8 -84 12 -191 12 l-166 0 -29 -29 -29
-29 0 -1031 0 -1031 -150 0 -150 0 0 578 c0 354 -4 591 -10 613 -19 70 -31 74
-226 77 l-175 3 -34 -34 -35 -35 0 -601 0 -601 -150 0 -150 0 0 221 0 221 -29
29 -29 29 -206 0 -206 0 -2 1734 c-3 1734 -3 1735 -24 1762 -50 68 -129 91
-194 57z"/>
</g>
</svg>
